<svg width="0" height="0">
  <symbol version="1.0" xmlns="http://www.w3.org/2000/svg" preserveAspectRatio="xMidYMid meet" viewBox="0 0 914.000000 981.000000" id="img_156938">
    <metadata>Created by potrace 1.16, written by Peter Selinger 2001-2019</metadata>
    <g transform="translate(0.000000,981.000000) scale(0.100000,-0.100000)" fill="currentColor" stroke="none">
      <path d="M3670 9804 c-19 -2 -91 -9 -160 -15 -634 -56 -1300 -301 -1840 -677
-355 -248 -726 -619 -974 -976 -303 -436 -525 -963 -625 -1486 -130 -682 -72
-1415 163 -2063 197 -541 495 -1007 910 -1423 319 -318 628 -541 1027 -740
1037 -517 2295 -537 3346 -53 77 35 88 38 96 23 26 -46 212 -236 1159 -1180
1110 -1108 1087 -1087 1253 -1149 299 -113 624 -49 853 169 116 111 181 216
228 373 36 119 38 306 5 428 -24 91 -65 183 -112 252 -17 27 -500 517 -1072
1090 l-1040 1041 77 98 c433 548 716 1236 803 1954 21 179 25 676 5 845 -56
484 -183 921 -387 1332 -660 1331 -2031 2175 -3509 2161 -94 0 -187 -3 -206
-4z m620 -839 c348 -48 634 -134 945 -284 329 -160 582 -340 839 -597 470
-471 765 -1062 867 -1734 21 -136 24 -190 23 -440 0 -244 -3 -306 -23 -430
-90 -587 -319 -1098 -689 -1540 -121 -144 -352 -364 -503 -477 -437 -328 -914
-523 -1469 -600 -157 -21 -574 -24 -730 -5 -554 69 -1062 272 -1494 596 -676
508 -1101 1241 -1212 2091 -24 179 -24 561 0 740 76 583 292 1097 648 1545
454 570 1090 957 1808 1100 126 25 196 35 385 54 87 9 496 -4 605 -19z"></path>
    </g>
  </symbol>
</svg>